<?xml version="1.0" encoding="UTF-8"?>
<svg id="Layer_1" xmlns="http://www.w3.org/2000/svg" version="1.1" viewBox="0 0 128 128">
  <!-- Generator: Adobe Illustrator 30.6.0, SVG Export Plug-In . SVG Version: 2.1.4 Build 109)  -->
  <defs>
    <style>
      .st0 {
        fill: #060606;
      }

      .st1 {
        fill: #fff;
      }
    </style>
  </defs>
  <rect class="st1" x="0" y="0" width="128" height="128" rx="11.7" ry="11.7"/>
  <g>
    <path class="st0" d="M99,48.6c-3.5,17.9-20.6,35.2-35,46-6.4-4.7-12.4-9.9-17.8-15.7-6.6-7.2-12-14.6-15.5-23.7-6.4-16.8-.3-36.4,15.6-45,16.8-9.1,39-4,48.6,13.1,4.3,7.7,5.8,16.7,4.1,25.4ZM70.3,33.4c-3.2.3-4.6,8.8-1.7,13.1s1.4,1.2,2.1,1.1c4.6-.6,4.1-14.6-.4-14.2ZM85,34.7c-.5-.8-1.4-1.4-2.2-1.3-4.4.4-4.4,14.2.3,14.2s4.9-7.5,1.9-12.9Z"/>
    <path class="st0" d="M93.5,80.7h-9.9c0,0,1.8-2.2,1.8-2.2h8c3.8,0,6.7,2.7,7.7,6.3l7.8,28.1c1.3,4.8-2.8,9.6-7.7,9.6H27c-2.7,0-5-1.3-6.4-3.2s-2-4.8-1.2-7.5l7.7-27.4c.9-3.3,3.9-5.8,7.3-5.8h7.9s1.9,2.1,1.9,2.1h-9.3c-2.6,0-5,1.8-5.7,4.3l-2.4,8.3,5.5,5.4,6.8,6.6,61.1-14-1.7-6.4c-.6-2.2-2.7-4.1-5.1-4.1ZM102.2,120c3-.8,5.2-3.8,4.4-6.8l-5.6-20-19.9,4.6,3,3.2,18.1,18.9ZM44.6,113.4l-6.4-6.2-9.1-8.9-2.9-2.7-4.9,17.6c-.9,3.4,2.2,6.8,5.6,6.8h24.5s-6.8-6.7-6.8-6.7ZM93.5,114.2l-5.2-5.4-5.5-5.7-4.5-4.6-37.2,8.5,1.7,1.8,11.8,11.4h44.5s-5.7-6-5.7-6Z"/>
  </g>
</svg>