<?xml version="1.0" encoding="UTF-8"?>
<svg id="Layer_1" xmlns="http://www.w3.org/2000/svg" version="1.1" viewBox="0 0 128 128">
  <!-- Generator: Adobe Illustrator 30.3.0, SVG Export Plug-In . SVG Version: 2.1.3 Build 182)  -->
  <defs>
    <style>
      .st0 {
        fill: #fff;
      }
    </style>
  </defs>
  <rect class="st0" width="128" height="128" rx="11.7" ry="11.7"/>
  <g>
    <path d="M39,107.9l-7.9-7.7-4.5-4.3,2.3-7.9c.6-2.9,3-4.7,5.9-4.7h9.4c-9.2-10.2-17.9-23.1-18.7-36.6s.3-11.2,2.3-16.6c3.7-10.3,11.4-18.5,21.7-22.4s19.4-3.6,28.7-.2c18.3,6.7,27.6,26.1,23.6,44.8s-10.1,22.1-18.1,30.9h9.8c2.6,0,4.6,1.6,5.5,4l1.8,6.5-61.8,14.1ZM95.7,62c4.6-9.3,5.9-18.3,3.1-28.4s-13.3-22.1-25.9-25c-16.4-3.9-33.7,3.2-41.2,18.5-3.5,7.2-4.7,15.1-3.4,23,3.2,18.7,20.8,36.4,35.7,47.4,12.4-9.4,24.8-21.5,31.7-35.4Z"/>
    <polygon points="54.8 123 50.2 118.7 41.1 109.9 78.7 101.3 99.5 123 54.8 123"/>
    <path d="M26.1,123c-3.8-.5-6-3.7-5.1-7.3l4.9-17.2,25.3,24.5h-25.1Z"/>
    <path d="M107.1,116.1c.4,3.1-1.2,5.9-4.4,6.8l-21.3-22.2,20.1-4.6,5.7,20.1Z"/>
    <path d="M72.7,37c2.8,5.4.9,12.5-1.9,12.8s-5.1-8.8-2.1-13.1,1.4-1.2,2.1-1.1,1.6.8,1.9,1.4Z"/>
    <path d="M85.1,36.8c3.1,5.5.9,12.9-1.8,13s-5.1-8.7-1.9-13.2,1.4-1.1,1.9-1,1.5.6,1.8,1.2Z"/>
  </g>
</svg>