<?xml version="1.0" encoding="UTF-8"?>
<svg id="Layer_1" xmlns="http://www.w3.org/2000/svg" version="1.1" viewBox="0 0 2692.9 414.2">
  <!-- Generator: Adobe Illustrator 30.6.0, SVG Export Plug-In . SVG Version: 2.1.4 Build 109)  -->
  <defs>
    <style>
      .st0 {
        fill: #fff;
      }
    </style>
  </defs>
  <g>
    <path class="st0" d="M1235,285.2c-4.1,5.6-8.9,8.8-13.4,12.4-45.8,36.6-112.5,36.1-155.6-2.6-17.9-16.1-32.1-36.7-37.1-61.5s-1.3-34.8-.9-51.9c7.2-25.7,19.7-48.8,40.8-65.1,12.8-9.9,27.1-18.8,42.8-22.3l13.6-3c12.2-2.7,25.8-2.3,38,0l17.3,3.3c6.7,1.3,15.8,5.2,21.4,9l20.4,13.5c17.5,14.8,29.7,32.9,36.9,54.3,6.9,20.6,6.3,53.1-.7,73.9-5,14.6-13.8,26.9-23.3,39.9h-.2ZM1136.2,299c8.3-1,17.7,1.6,25.5.2,12.1-2.2,25.1-7.4,34.3-15.3l14.4-12.3c23.2-23.8,31.6-56.6,23-89.6-7.3-28.1-29.5-52.8-59.5-63.5l-14.8-3.8c-9.5-2.4-16.8-2.4-26.3-.1l-19.3,4.6c-13.5,5-24.7,14-34.5,24-13.7,13.8-20.6,29.6-24.4,48.1-9.1,43.9,20.6,91.1,64.6,105.3,5.5,1.8,9.8,3.3,17.1,2.4h0Z"/>
    <path class="st0" d="M1675.5,256c-6.6,40.1-40.2,66.2-79.3,65.9l-68.6-.5.6-112.5v-82.4l-.6-32.6,81.8.4c12.9,0,24.3,9.8,32.4,19.6,12.9,15.7,13.9,41.2,1.6,57.2l-3.6,4.7c-1,1.2,1.2,4.9,2.7,6,23.7,16.7,37.7,44.7,32.9,74.4v-.2ZM1603.1,168.4c15.3-.4,24.7-17.2,21-31.2s-13.6-21.1-24.5-21h-44.8c0,.1-.7,46.7-.7,46.7,0,2.6,3.8,6.7,6.4,6.6l42.5-1h0ZM1604.6,297.4c26.8-4.8,44-27.3,43.9-51.9,0-24.1-16.6-48.6-42.6-52.2l-51.3-.6v100.5c0,2,4.1,5.5,6.1,5.4,15-.9,29.2,1.4,43.9-1.2h0Z"/>
    <path class="st0" d="M2493,322.2l-40.4-62c-2.8-4.2-6.3-11.9-10.1-14.8l-21.5-.8c-1.9,0-5.8,3.3-6.4,5.1v72c.1,0-25.4-.1-25.4-.1V93l71,2c39.5,6.2,65.3,41.7,62.5,79.8-3.7,50.3-48.4,66-48,67.9l1.3,5.8,47.4,72.1-30.5,1.7h0ZM2494.6,182.1c5.8-27-6.9-51.6-31.5-61.3-15.1-6-30.6-5.7-48.3-4.1l-.2,105.9c14,.2,26.7,1.9,39.5-.7,19.2-3.8,36.3-20.1,40.5-39.8Z"/>
    <path class="st0" d="M1862.9,93.7l.5,94,.4,35.3.5,18.2c.6,22.9-6.6,42.4-22,58.7-28.8,30.5-80,30.5-107.4,5.6-12.9-11.8-26.1-27-26.2-45.6l-.8-166h25.8l.5,156.6c0,12.5,6.6,23.4,13.8,31.6,19,21.8,50.1,24.8,71,4.1,8.1-8.1,17.8-19.2,17.8-32.5l.7-159.8,25.4-.2h0Z"/>
    <path class="st0" d="M1409.1,299.3c10.6.3,19,.2,28-3.7,14.3-6.3,27.9-12.2,37.9-24.3l19.6,18.5c-18.4,15.4-40.4,29.4-62.8,32.2-10.8,1.4-22.3,4-32.8,2.1l-22.5-4c-22.5-4-38.9-17.8-54.4-32.9-18.9-18.4-27-41.5-31-67-1.5-9.6-1.8-17,0-26.8,3.8-20,9-38.9,22-55.7,14.2-18.3,32.5-32.7,54.4-40.6l15.1-4c37.9-10.1,83.1,4.3,111.8,32.2l-14.7,13c-1.1.9-4.5,3.2-5.5,2.4l-5.5-3.9c-9-6.3-19-13.1-29.4-16.6l-10.7-3.5c-8.8-2.9-30.8-3-40,0l-11.4,3.6c-27.5,11.3-49.2,34-56.7,63.7-3.3,13-3,31.1-.2,44.2,7.6,35.1,33.7,58.9,66.3,69.6,6.9,2.3,14.3,1.3,22.2,1.5h.3Z"/>
    <polygon class="st0" points="2345.7 192.6 2346.5 218.4 2251 218.6 2250.8 298.5 2346.3 298.8 2346.8 321.5 2225 321.4 2224.9 93.9 2346.8 93.8 2347.1 115.7 2304.3 116 2254.2 115.9 2250.8 122.8 2250.8 192.6 2345.7 192.6"/>
    <path class="st0" d="M2689.4,274.9c-13.1,38.1-48.5,55.9-88.7,46.4s-39.5-21.8-47.1-42.6l-5.5-15c2.3-3.8,10.5-5.8,15.3-7.7l6.8-2.6c1.8-.7,4.9,1.5,6.6,3.4,1.8,25.5,21.5,44.6,46.4,44.6,12.5-2,23.1-7.1,31.3-16.3,12.5-14.2,16.3-33.9,6.9-51.4-10-18.8-29.3-28.9-48.9-36.2s-20.9-10.2-28.9-17.7c-23.7-22.2-22.1-58.1,3.4-78.1,20.6-16.1,48.8-15.3,70.1,1.7,7.1,5.6,10.7,15.9,15.7,24.4l-19.1,8.2c-10.1,4.4-10.1-20.7-31.6-22.5s-28.2,13.6-28.1,28.8c0,6.4,4.4,15.3,8.7,19.5,17.8,17.4,42.6,19.1,64.4,38,21.6,18.7,31.6,47.6,22.3,74.9v.2Z"/>
    <path class="st0" d="M1979.9,323.6c-23.6,4.4-56.3-7.4-69.8-27.1-8.5-12.4-15.8-33.7-10.6-35.9l9.5-4c4.2-1.8,10.3-4.7,14.2-1.7,0,23.7,18.9,45.8,41.4,46.5,21.1.6,42.7-14.6,47.1-36.5,2.3-11.5.9-26-5.9-35.3-11.3-15.5-26.4-25.7-44.3-31.5-9.5-3.1-17.8-8.6-26-14.1-10.4-7-15.2-18.3-19.6-29.3-3.9-9.7-3.4-17.1.4-27.2s14.9-26.5,29.3-33l11.8-2.9c20-4.9,41.1,3.7,53.7,20.1l8.7,17.1-25.1,9.1c-4.5-12.7-11.6-22.1-25-23.8-13.3-1.7-27.2,11.3-28.8,26.1-.9,8.1,4,19,10.4,24.4,16.7,14,37.7,17.2,56.6,30.9,13,9.4,26.2,25.6,29.2,41.1,8.4,43.8-14.4,79.3-57.1,87.2v-.2Z"/>
    <path class="st0" d="M2141,321.1l-26.6.2V124.1c0-3.8-3.4-8.2-6.8-8.2h-50.3v-22.1h137.4v22.5l-44.9-.6c-2.7,0-8.9,2.7-8.9,5v200.4h0Z"/>
    <path class="st0" d="M939.5,298.5h74.8l-.5,23.1h-108.6V93.9l26.6.3v199.1c.8,1.9,5.2,5.2,7.7,5.2h0Z"/>
    <path class="st0" d="M769.2,287.5l11,6.6-17.5,15.9c-14.7,13.4-46.4,18.2-67.5,12.2s-39.9-22.2-49.3-43.1c-1.9-4.3-2.7-8.8-3.7-13.8-1.4-6.5-5.6-14.5-2.3-21.1,3.4-6.7,4.1-12.3,3-19.5l5.8-12.3c1.4-3,4.5-9.1,6.7-11.3l13.3-13.2c7-6.9,18.4-11,27.5-13.8s33.2-2,43.3,1c30.3,9.1,51.8,34.4,50,66.3h-136.5c-3.9,5.9-2.4,10.7-1.1,16.6,5.3,25,19.4,43,43.3,52.7,16.4,6.7,33,6,48.5-2.7,9.6-5.4,17.3-10.2,25.6-20.6h0ZM730.2,185.2c-34.2-6.7-65.2,12.8-77,45.9h125c-2.8-22.8-28.4-42-48-45.9Z"/>
    <path class="st0" d="M611.8,319.4c-2.2,2.1-6.7,2.6-10.4,2l-.4-93.3c0-12.1-7.9-22.3-16.7-30.5-10.3-8.5-23.9-11.9-37.3-9.2-12.6,4.4-27.3,11.3-29.6,25l-.8,107c-2.7,1.8-7.8,1.6-10.6-.6V99.2c2.9-1.4,6.4-1.8,10.3-1.6l.4,89.4c3.3.9,7.1-.2,9.9-2.2,12.7-8.9,27.6-9.7,43.6-7,21.4,3.6,40.4,22.6,40.6,45.8l.9,95.8h0Z"/>
    <path class="st0" d="M422,319.2c0,4-9.7,2.7-9.7-.8l-.2-209.5-58.5-.4.2-11.3,125.1.2c2.5.5,2.9,8.6.5,10.8l-57.1.8-.3,210.1h0Z"/>
  </g>
  <g>
    <path class="st0" d="M284,152.3c-12.4,63.4-73,124.8-124.4,163.3-22.6-16.8-43.9-35-63.1-55.9-23.4-25.5-42.5-51.7-54.9-84.2-22.6-59.5-1.1-129,55.3-159.7C156.5-16.6,235.2,1.7,269.3,62.2c15.4,27.3,20.7,59.3,14.6,90.1ZM182,98.4c-11.4,1.2-16.4,31.3-6,46.4,1.7,2.4,4.9,4.2,7.3,3.8,16.3-2.2,14.6-51.9-1.3-50.2ZM234.1,103c-1.7-3-5.1-4.8-7.8-4.6-15.7,1.5-15.5,50.5,1,50.3,9.7-.1,17.5-26.8,6.8-45.7Z"/>
    <path class="st0" d="M264.3,266.2l-35.2-.3,6.4-7.7h28.3c13.4,0,23.6,9.7,27.1,22.4l27.5,99.5c4.7,17.1-9.8,34-27.2,34H28.5c-9.7,0-17.7-4.7-22.8-11.2-6.2-8-7-17.2-4.3-26.7l27.4-97.3c3.3-11.8,13.8-20.5,26.1-20.5l28-.2,6.7,7.8h-33c-9.3,0-17.6,6.2-20.1,15.1l-8.4,29.4,19.7,19.2,24.1,23.5,216.8-49.7-6.1-22.7c-2.1-7.8-9.4-14.5-18.3-14.5ZM295.3,405.9c10.6-2.9,18.6-13.4,15.6-24.2l-19.7-70.9-70.8,16.3,10.6,11.5,64.3,67.2ZM91,382.5l-22.8-21.9-32.2-31.5-10.4-9.6-17.3,62.6c-3.3,12,7.9,24.2,20,24.3h87c0,0-24.3-23.8-24.3-23.8ZM264.5,385.2l-18.4-19.2-19.4-20.4-15.8-16.3-131.9,30.3,6.1,6.3,41.8,40.5h157.8c0,0-20.2-21.3-20.2-21.3Z"/>
  </g>
</svg>